<svg width="341" height="74" viewBox="0 0 341 74" fill="none" xmlns="http://www.w3.org/2000/svg">
<g filter="url(#filter0_d_68_25)">
<path fill-rule="evenodd" clip-rule="evenodd" d="M20 6C14.4772 6 10 10.4772 10 16V50C10 55.5228 14.4772 60 20 60H321C326.523 60 331 55.5228 331 50V16C331 10.4772 326.523 6 321 6H20ZM146.474 26.12C146.874 24.92 147.074 23.9867 147.074 23.32C147.074 22.8933 146.901 22.5867 146.554 22.4C146.208 22.2133 145.608 22.12 144.754 22.12C144.274 22.12 143.941 22.3066 143.754 22.68C143.568 23.0533 143.474 23.6266 143.474 24.4V43.36C143.474 44.6667 143.621 45.5467 143.914 46C144.234 46.4533 144.634 46.68 145.114 46.68C145.621 46.68 145.981 46.3333 146.194 45.64C146.434 44.9467 146.581 43.9333 146.634 42.6L146.754 37.88H147.314L147.434 42.72C147.488 44.6934 147.208 46.3066 146.594 47.56C146.008 48.7867 145.128 49.4 143.954 49.4C142.781 49.4 141.901 49.04 141.314 48.32C140.754 47.6 140.474 46.4 140.474 44.72V24.8C140.474 22.96 140.874 21.6 141.674 20.72C142.474 19.84 143.501 19.4 144.754 19.4C146.808 19.4 147.834 20.64 147.834 23.12C147.834 26.0533 147.568 29.0133 147.034 32H143.994C145.274 29.28 146.101 27.32 146.474 26.12ZM157.251 49H160.291L158.051 37.44L155.611 37.76L155.571 37.28C156.905 36.6667 157.918 35.9333 158.611 35.08C159.331 34.2267 159.691 33.0667 159.691 31.6V24.84C159.691 23.08 159.225 21.8 158.291 21C157.385 20.2 156.038 19.8 154.251 19.8H150.651V49H153.651V38.44C153.998 38.28 154.305 38.2 154.571 38.2C155.211 38.2 155.598 38.6 155.731 39.4L157.251 49ZM153.651 37.36V22.52H153.971C154.985 22.52 155.691 22.76 156.091 23.24C156.491 23.6934 156.691 24.56 156.691 25.84V34C156.691 34.72 156.531 35.32 156.211 35.8C155.891 36.2534 155.291 36.6667 154.411 37.04L153.651 37.36ZM170.117 49V46.4H165.797V34.04H168.637V33.16H165.797V22.4H169.717V19.8H162.797V49H170.117ZM175.542 40.8H178.542L179.583 49H182.943L178.062 19.8H174.102L175.822 23.84L171.423 49H175.023L175.542 40.8ZM177.702 34.2L178.423 40H175.622L176.503 26.2H176.943L177.702 34.2ZM188.377 22.4H191.697V19.8H182.057V22.4H185.377V49H188.377V22.4ZM201.14 49V46.4H196.82V34.04H199.66V33.16H196.82V22.4H200.74V19.8H193.82V49H201.14Z" fill="white"/>
</g>
<defs>
<filter id="filter0_d_68_25" x="0" y="0" width="341" height="74" filterUnits="userSpaceOnUse" color-interpolation-filters="sRGB">
<feFlood flood-opacity="0" result="BackgroundImageFix"/>
<feColorMatrix in="SourceAlpha" type="matrix" values="0 0 0 0 0 0 0 0 0 0 0 0 0 0 0 0 0 0 127 0" result="hardAlpha"/>
<feOffset dy="4"/>
<feGaussianBlur stdDeviation="5"/>
<feComposite in2="hardAlpha" operator="out"/>
<feColorMatrix type="matrix" values="0 0 0 0 0 0 0 0 0 0 0 0 0 0 0 0 0 0 0.25 0"/>
<feBlend mode="normal" in2="BackgroundImageFix" result="effect1_dropShadow_68_25"/>
<feBlend mode="normal" in="SourceGraphic" in2="effect1_dropShadow_68_25" result="shape"/>
</filter>
</defs>
</svg>
